<?xml version="1.0" encoding="UTF-8" standalone="no"?>
<!-- Generator: Adobe Illustrator 22.0.0, SVG Export Plug-In . SVG Version: 6.00 Build 0)  -->

<svg
   xmlns:dc="http://purl.org/dc/elements/1.1/"
   xmlns:cc="http://creativecommons.org/ns#"
   xmlns:rdf="http://www.w3.org/1999/02/22-rdf-syntax-ns#"
   xmlns:svg="http://www.w3.org/2000/svg"
   xmlns="http://www.w3.org/2000/svg"
   xmlns:sodipodi="http://sodipodi.sourceforge.net/DTD/sodipodi-0.dtd"
   xmlns:inkscape="http://www.inkscape.org/namespaces/inkscape"
   version="1.1"
   id="Layer_1"
   x="0px"
   y="0px"
   viewBox="0 0 512 512"
   style="enable-background:new 0 0 512 512;"
   xml:space="preserve"
   sodipodi:docname="replay1.svg"
   inkscape:version="0.92.4 (5da689c313, 2019-01-14)"><metadata
   id="metadata11"><rdf:RDF><cc:Work
       rdf:about=""><dc:format>image/svg+xml</dc:format><dc:type
         rdf:resource="http://purl.org/dc/dcmitype/StillImage" /><dc:title></dc:title></cc:Work></rdf:RDF></metadata><defs
   id="defs9" /><sodipodi:namedview
   pagecolor="#ffffff"
   bordercolor="#666666"
   borderopacity="1"
   objecttolerance="10"
   gridtolerance="10"
   guidetolerance="10"
   inkscape:pageopacity="0"
   inkscape:pageshadow="2"
   inkscape:window-width="1920"
   inkscape:window-height="1051"
   id="namedview7"
   showgrid="false"
   inkscape:zoom="1.3037281"
   inkscape:cx="95.975954"
   inkscape:cy="216.6424"
   inkscape:window-x="-9"
   inkscape:window-y="-9"
   inkscape:window-maximized="1"
   inkscape:current-layer="Layer_1"
   inkscape:snap-text-baseline="true" />
<style
   type="text/css"
   id="style2">
	.st0{fill:#CC0033;}
</style>
<path
   class="st0"
   d="M 424.07725,90.42901 C 379.25047,45.436905 319.66704,20.709839 256.18562,20.709839 c -57.07758,0 -111.46371,20.265039 -154.52713,57.355638 L 55.625189,32.794495 46.437089,189.43023 205.41905,177.62445 160.31384,135.79295 c 27.28587,-21.4735 60.88276,-33.18632 95.96459,-33.18632 85.75559,0 155.64083,69.99804 155.64083,156.07798 0,86.07994 -69.88524,156.07798 -155.64083,156.07798 -39.44386,0 -77.03154,-14.78046 -105.89516,-41.64558 -28.67801,-26.77216 -46.21893,-62.93317 -49.28163,-101.88295 l -1.0209,-12.92129 H 18.408746 l 0.835282,14.78047 c 7.517536,125.40155 111.556522,223.56614 236.941592,223.56614 63.38861,0 122.97204,-24.72707 167.89163,-69.71917 44.82679,-44.99211 69.51401,-104.67172 69.51401,-168.2556 0,-63.58388 -24.68722,-123.35645 -69.51401,-168.2556 z"
   id="path4"
   inkscape:connector-curvature="0"
   style="fill:#cc0033;stroke-width:0.92883956" />
<flowRoot
   xml:space="preserve"
   id="flowRoot3716"
   style="font-style:normal;font-weight:normal;font-size:40px;line-height:1.25;font-family:sans-serif;letter-spacing:0px;word-spacing:0px;fill:#000000;fill-opacity:1;stroke:none"
   transform="matrix(9.3806239,0,0,7.9654501,-1533.8163,-1610.3382)"><flowRegion
     id="flowRegion3718"><rect
       id="rect3720"
       width="29.147154"
       height="49.090019"
       x="184.08746"
       y="211.32382" /></flowRegion><flowPara
     id="flowPara3722"
     style="font-style:normal;font-variant:normal;font-weight:normal;font-stretch:normal;font-size:40.00048447px;font-family:'Javanese Text';-inkscape-font-specification:'Javanese Text, Normal';font-variant-ligatures:normal;font-variant-caps:normal;font-variant-numeric:normal;font-feature-settings:normal;text-align:start;writing-mode:lr-tb;text-anchor:start">1</flowPara></flowRoot><path
   style="fill:#cc0033;fill-opacity:1;stroke-width:0.76703107"
   d="m 206.88865,357.56383 v -5.75274 h 20.32632 20.32633 v -77.47014 -77.47014 h -21.86039 -21.86039 v -5.75273 -5.75273 h 38.35156 38.35155 v 83.22287 83.22287 h 20.32633 20.32632 v 5.75274 5.75273 h -57.14382 -57.14381 z"
   id="path3724"
   inkscape:connector-curvature="0" /></svg>